<?xml version="1.0" encoding="UTF-8"?>
<svg xmlns="http://www.w3.org/2000/svg" xml:space="preserve" width="3.49787in" height="1.2in" version="1.1"
viewBox="0 0 3497.87 1200"
style="shape-rendering:geometricPrecision;text-rendering:geometricPrecision;image-rendering:optimizeQuality;fill-rule:evenodd;clip-rule:evenodd">
 <defs>
  <style type="text/css">
   <![CDATA[
    .fil0 {fill:none}
    .fil5 {fill:#373435}
    .fil4 {fill:#3E4095}
    .fil3 {fill:#6DBE4F}
    .fil1 {fill:#F58634}
    .fil2 {fill:#FFF212}
   ]]>
  </style>
 </defs>
 <g id="Layer_1">
  <rect class="fil0" width="3497.87" height="1200"/>
  <g>
    <path class="fil1" d="M1714.24 333.13l-7.54 -168.07 267.1 -0.68c0,0 27.39,43.49 41.87,53.16l238.39 173.96 29.74 572.73 -492.11 39.78c0,0 -41.89,-542.36 -77.45,-670.89z"/>
    <path class="fil2" d="M1299.46 1198.98c0,0 357.11,6.64 451.77,28.24 14.62,-227.39 2.98,-463.54 -26.85,-705.76l-544.67 55.58c0,0 14.83,411.28 119.75,621.95z"/>
    <path class="fil3" d="M419.99 922.95c45.93,0 533.51,-249.82 637.96,-264.21l157 377.69c0,0 -717.38,-58.58 -794.95,-113.48z"/>
    <path class="fil4" d="M2325.42 348.01c0,0 433.69,147.98 547.52,173.03 0,0 23.85,19.36 34.1,337.09 0,0 -327.98,64.92 -558.58,71.75 0,0 -37.81,-539.24 -23.05,-581.87z"/>
    <path class="fil5" d="M459.52 852.58c0,0 85.83,-69.33 292.17,-160.12l-1.64 -37.98 1467.93 -375.44 -14.83 105.59c-5.23,37.22 39.36,55.89 70.69,70.51 59.66,27.81 140.21,42.93 206.63,67.67 136.04,50.65 394.83,162.07 564.89,328.85 83.2,81.63 -46.99,84.56 -118.01,109.39 -112.92,39.5 -357.74,119.46 -523.42,132.09 -78.55,5.98 -48.28,50.96 -96.51,95.03 -36.43,33.28 -103.3,57.31 -209.33,64.38 -26.26,-78.91 -343.14,-93.86 -437.66,-107.78 -301.76,-44.43 -797.02,-131.58 -927.17,-166.41 -62.53,-16.71 -84.26,-84.42 42.39,-56.4 99.19,21.96 594.77,124.89 1162.32,120.89 0,0 116.67,-26.83 -32.58,-70.62 0,0 -223.77,-111.88 -286.39,-122.54 0,0 -21.31,-25.3 35.96,-42.62 0,0 88.06,-97.24 143.17,-266.02 0,0 -378.63,-21.06 -350.91,40.49l151.18 235.04 -20.47 66.52c0,0 0,18.75 -30.7,-16.19 0,0 -211.4,-190.98 -248.28,-244.64 0,0 -430.48,60.95 -744.26,264.75 0,0 -54.24,-26.38 -95.2,-34.48zm1517.15 -328.99c232.74,5.61 623.57,214.99 822.88,336.57 0,0 -44.71,91.02 -294.25,127.39 0,0 -360.56,45.16 -429.98,46.1 0,0 -35.18,16.17 -41.85,-24.74 0,0 1.53,-27.32 39.81,-56.89 14.08,-10.87 18.07,-13.73 30.25,-27.53 11.36,-12.86 19.01,-18.73 20.89,-37.32 1.93,-18.96 -9.2,-29.48 -19.34,-43.54 -35.09,-48.58 -150.8,-209.33 -185.33,-264.96 -40.54,-65.3 -64.73,-58.07 56.92,-55.13z"/>
  </g>
 </g>
</svg>
